HIERARCHY
ROOT Hips
{
	OFFSET 0.000000 0.000000 0.000000 
	CHANNELS 6 Xposition Yposition Zposition Yrotation Zrotation Xrotation 
	JOINT Lumbar
	{
		OFFSET 0.000000 0.000000 0.000000 
		CHANNELS 3 Zrotation Xrotation Yrotation
		JOINT Neck
		{
			OFFSET 0.000000 0.445665 0.000000 
			CHANNELS 3 Zrotation Xrotation Yrotation
			End Site
			{
				OFFSET 0.000000 0.227535 0.000000 
			}
		}
		JOINT RightShoulder
		{
			OFFSET 0.019635 0.377685 0.194865 
			CHANNELS 3 Zrotation Xrotation Yrotation
			JOINT RightElbow
			{
				OFFSET 0.000000 -0.243375 0.000000 
				CHANNELS 2 Zrotation Yrotation
				JOINT RightWrist
				{
					OFFSET 0.000000 -0.264825 0.000000 
					CHANNELS 2 Zrotation Xrotation
					End Site
					{
						OFFSET 0.006600 -0.176220 0.000990 
					}
				}
			}
		}
		JOINT LeftShoulder
		{
			OFFSET 0.019635 0.377685 -0.194865 
			CHANNELS 3 Zrotation Xrotation Yrotation
			JOINT LeftElbow
			{
				OFFSET 0.000000 -0.243375 0.000000 
				CHANNELS 2 Zrotation Yrotation
				JOINT LeftWrist
				{
					OFFSET 0.000000 -0.264825 0.000000 
					CHANNELS 2 Zrotation Xrotation
					End Site
					{
						OFFSET 0.006600 -0.176220 -0.000990 
					}
				}
			}
		}
	}
	JOINT RightHip
	{
		OFFSET 0.052140 -0.069960 0.075570 
		CHANNELS 3 Zrotation Xrotation Yrotation
		JOINT RightKnee
		{
			OFFSET 0.000000 -0.402270 0.000000 
			CHANNELS 1 Zrotation
			JOINT RightAnkle
			{
				OFFSET 0.000000 -0.404085 0.000000 
				CHANNELS 3 Zrotation Xrotation Yrotation
				End Site
				{
					OFFSET 0.204105 -0.089430 0.008415 
				}
			}
		}
	}
	JOINT LeftHip
	{
		OFFSET 0.052140 -0.069960 -0.075570 
		CHANNELS 3 Zrotation Xrotation Yrotation
		JOINT LeftKnee
		{
			OFFSET 0.000000 -0.402270 0.000000 
			CHANNELS 1 Zrotation
			JOINT LeftAnkle
			{
				OFFSET 0.000000 -0.404085 0.000000 
				CHANNELS 3 Zrotation Xrotation Yrotation
				End Site
				{
					OFFSET 0.204105 -0.089430 -0.008415 
				}
			}
		}
	}
}
MOTION
Frames: 11
Frame Time: 0.02
0.87251 -0.01714 -0.33078 482.21185 -32.06108 -5.95892 37.12179 4.57266 -5.82085 -15.17566 1.86311 -2.11993 -28.82064 -18.40717 5.94722 21.70189 95.27843 15.082 4.90327 -34.57657 47.75851 -27.73035 109.74707 -90.32037 17.81823 1.34898 55.13867 -0.93654 -11.26099 -56.30216 -7.98343 -3.26769 -3.89568 42.09954 10.55405 11.80957 -34.73348 -6.75835 0.44856 2.49124
0.86629 -0.01789 -0.34291 483.09709 -32.29262 -5.9556 37.26115 4.60913 -6.28128 -15.32221 1.53378 -2.11993 -30.38687 -18.46756 6.12866 21.83175 95.26975 15.34107 4.82474 -35.16324 47.83001 -27.33652 109.79876 -90.08469 17.81424 1.39278 56.1874 -0.98253 -11.53893 -52.82708 -7.85029 -3.09899 -3.80682 41.31884 10.8086 11.79188 -34.46407 -6.76188 0.39804 2.46652
0.86024 -0.01905 -0.35499 483.94139 -32.5657 -5.90772 37.4088 4.61779 -6.58039 -15.39533 1.19779 -2.11993 -31.68755 -18.45265 6.39592 21.84517 95.29691 15.60742 4.80897 -35.61319 47.91911 -27.06891 109.83436 -89.88771 17.89079 1.42439 57.14032 -0.98786 -11.91999 -49.09213 -7.76786 -2.89037 -3.70113 40.63596 11.03656 11.65801 -34.24941 -6.76183 0.36635 2.44896
0.85411 -0.02005 -0.36712 484.80303 -32.81982 -5.87959 37.55201 4.63892 -6.94402 -15.49808 0.87323 -2.11993 -33.08173 -18.46953 6.62748 21.90905 95.30666 15.86432 4.75928 -36.11974 47.99469 -26.74368 109.87656 -89.68443 17.94244 1.44518 58.13406 -1.00673 -12.25601 -45.511 -7.66233 -2.6998 -3.60313 39.90894 11.28026 11.57535 -34.01212 -6.76335 0.32647 2.42833
0.84801 -0.02095 -0.37911 485.66781 -33.0774 -5.85324 37.69956 4.66037 -7.34072 -15.61504 0.51109 -2.11993 -34.59335 -18.4962 6.85864 21.99243 95.31328 16.14955 4.72743 -36.65078 48.09338 -26.41636 109.92212 -89.42965 17.94616 1.53173 59.13898 -1.04957 -12.5936 -41.74231 -7.55587 -2.50704 -3.50367 39.18362 11.50938 11.4999 -33.76306 -6.76522 0.28555 2.4072
0.84187 -0.02214 -0.3914 486.51791 -33.3356 -5.81199 37.83929 4.67428 -7.63136 -15.68554 0.22697 -2.11993 -35.79315 -18.48497 7.10573 22.00412 95.33793 16.3754 4.67584 -37.09668 48.1488 -26.12598 109.9567 -89.29492 18.06587 1.48284 60.09436 -1.03194 -12.94571 -38.32345 -7.46422 -2.31099 -3.40406 38.47632 11.76239 11.38089 -33.55302 -6.76583 0.2509 2.38866
0.83559 -0.02399 -0.40439 487.32783 -33.59549 -5.74975 37.95744 4.67975 -7.67306 -15.64592 0.15389 -2.11993 -36.23361 -18.38486 7.37639 21.84509 95.40387 16.45005 4.54689 -37.35546 48.07257 -25.88996 109.9651 -89.45494 18.51608 1.02299 60.98025 -0.8533 -13.35285 -35.85243 -7.39626 -2.10766 -3.30421 37.80252 12.08565 11.17671 -33.43191 -6.75942 0.231 2.37605
0.82925 -0.0261 -0.4177 488.12607 -33.85219 -5.67274 38.06681 4.6779 -7.61303 -15.56214 0.16112 -2.11993 -36.36174 -18.2496 7.65782 21.61682 95.48775 16.46184 4.39794 -37.53036 47.9534 -25.69026 109.9629 -89.73883 19.07499 0.43396 61.81156 -0.61542 -13.76363 -33.76265 -7.34241 -1.9042 -3.20567 37.14268 12.43396 10.9297 -33.35096 -6.7527 0.21636 2.36568
0.82291 -0.02809 -0.43094 488.9366 -34.10364 -5.59625 38.17873 4.67558 -7.59777 -15.49886 0.1355 -2.11993 -36.61012 -18.13234 7.93235 21.41984 95.56444 16.49271 4.26363 -37.73448 47.85922 -25.48492 109.96539 -89.98526 19.5645 -0.06888 62.64038 -0.40685 -14.14451 -31.55506 -7.28541 -1.70624 -3.10923 36.46979 12.77232 10.70028 -33.25346 -6.74881 0.19787 2.3539
0.81666 -0.03011 -0.44388 489.71748 -34.38562 -5.54326 38.29725 4.68737 -7.58452 -15.43171 0.09336 -2.11993 -36.94471 -18.00439 8.21972 21.2199 95.63837 16.56387 4.10787 -37.97237 47.74334 -25.23741 109.96792 -90.15724 20.1406 -0.68526 63.58302 -0.18705 -14.64475 -29.10048 -7.21656 -1.4837 -3.00073 35.82458 13.1044 10.48216 -33.14435 -6.73307 0.18605 2.34398
0.81023 -0.03212 -0.45753 490.55625 -34.60176 -5.43974 38.39957 4.66955 -7.54312 -15.3624 0.10585 -2.11993 -37.02413 -17.89071 8.48033 21.01091 95.72165 16.53614 3.9914 -38.12059 47.66125 -25.08556 109.96801 -90.50852 20.56193 -1.09931 64.27435 0.0232 -14.9004 -27.25851 -7.17486 -1.31305 -2.91797 35.12887 13.45497 10.2225 -33.07615 -6.74249 0.16155 2.33071
